<svg id="Layer" data-name="Logo" xmlns="http://www.w3.org/2000/svg" viewBox="0 0 217.88 140.1">
    <title>di_logo</title>
    <path d="M288.2,248h69.2c4,0,4.8,1,4.1,4.9l-13.5,81c-2.8,16.6-5.5,33.2-8.3,49.8-.5,3.3-1.7,4.2-5,4.2H219.1c-5.5,0-5.8-.5-4.9-5.9,4.3-25,8.6-50.1,12.9-75.1.1-.3.1-.7.2-1.1.7-3.9,1.5-4.7,5.5-4.7h30.7c2.8.1,4.1,1.8,3.6,4.5-2.5,13-4.9,26.1-7.4,39.1-.5,2.6-1,5.2-1.4,7.8-.5,3.3.7,4.6,4,4.6h39.2c2,0,3.1-.7,3.5-2.6,1.2-6.1,2.4-12.1,3.4-18.2q4.35-25.8,8.6-51.6a10.12,10.12,0,0,0,.2-3,2.81,2.81,0,0,0-3.1-3h-100c-2.5-.1-3.4-1-3.1-3.4.6-5.7,1.3-11.4,1.9-17.1.3-2.3.5-4.5.7-6.8a3.46,3.46,0,0,1,3.5-3.4c1.1-.1,2.1-.1,3.2-.1Q254.2,248.05,288.2,248Z"
          transform="translate(-210.94 -247.9)"/>
    <path d="M409.5,248h15.8c2.9,0,3.9,1.3,3.4,4.2q-8.7,52.65-17.5,105.2c-1.5,9-3,18.1-4.5,27.1-.4,2.5-1.5,3.4-4,3.5H371.4c-3.2,0-4.3-1.2-3.7-4.3,2.7-16.6,5.5-33.2,8.3-49.7l13.5-81c.7-4.3,1.2-4.8,5.6-4.8C399.9,248,404.7,248,409.5,248Z"
          transform="translate(-210.94 -247.9)"/>
</svg>